<svg width="16" height="16" viewBox="0 0 16 16" fill="none" xmlns="http://www.w3.org/2000/svg">
<circle cx="8" cy="8" r="8" fill="white"/>
<g clip-path="url(#clip0_1_27)">
<path d="M9.14643 11.8031L9.12904 11.8013C9.13059 11.8026 9.11602 11.8548 9.06697 11.9176C8.99559 12.0134 8.85811 12.1318 8.68275 12.2184C8.50678 12.3061 8.29449 12.3646 8.06482 12.3644C7.7973 12.3636 7.50434 12.2884 7.1918 12.0721C6.8923 11.863 6.73711 11.6956 6.63346 11.5271C6.55586 11.3997 6.50373 11.2634 6.45375 11.0876C6.37865 10.8252 6.31441 10.479 6.17443 10.0266C6.03447 9.57383 5.81752 9.01674 5.43547 8.31442C5.1307 7.75657 4.86908 6.92448 4.87094 6.1368C4.87094 5.80643 4.91564 5.48426 5.01525 5.18991C5.1152 4.89506 5.2682 4.62786 5.49104 4.39633C6.01803 3.85196 6.62568 3.63719 7.20357 3.63565C7.62193 3.63534 8.02322 3.75249 8.34848 3.94893C8.67465 4.14524 8.92139 4.41821 9.04771 4.72188L9.6343 4.47731C9.44684 4.02885 9.10203 3.66108 8.67652 3.40442C8.25043 3.1479 7.73957 3.00032 7.20359 3.00001C6.46463 2.99844 5.67445 3.28833 5.03357 3.95528C4.74029 4.25911 4.53889 4.61385 4.41316 4.9863C4.28717 5.35903 4.23533 5.74962 4.23533 6.13678C4.23719 7.06118 4.5252 7.96725 4.87717 8.61794C5.19992 9.2118 5.39236 9.68276 5.52178 10.0723C5.61861 10.3646 5.68037 10.6114 5.73469 10.8356C5.81629 11.1699 5.879 11.4644 6.03572 11.7609C6.11361 11.908 6.2151 12.0508 6.34516 12.1881C6.47551 12.3256 6.63379 12.4581 6.82867 12.5938C7.24084 12.8813 7.67223 13.0009 8.06482 13C8.53006 12.9994 8.93537 12.8402 9.23363 12.6265C9.38322 12.5188 9.50734 12.3973 9.60109 12.2639C9.69295 12.1299 9.76217 11.9828 9.76465 11.8031H9.14643V11.8031Z" fill="black"/>
<path d="M7.81344 8.02016C7.59092 8.06161 7.38795 8.18839 7.24828 8.37848C7.1077 8.56843 7.02979 8.81749 7.0301 9.10116C7.0301 9.25307 7.05213 9.41555 7.09776 9.58702C7.1769 9.88262 7.31252 10.1239 7.49315 10.2962C7.67252 10.4683 7.90219 10.5687 8.14022 10.5681C8.38821 10.5687 8.63338 10.46 8.8317 10.2658C8.96299 10.1379 9.04397 9.97497 9.09178 9.80116C9.13957 9.62675 9.15696 9.43772 9.15696 9.23694C9.15696 8.9019 9.10791 8.53196 9.04367 8.14915C8.97942 7.76663 8.89965 7.37171 8.83418 6.99522C8.76219 6.5879 8.64891 6.15276 8.41953 5.79493C8.30471 5.61665 8.15791 5.4568 7.97014 5.34182C7.78299 5.22669 7.55612 5.16073 7.30381 5.16134C7.28457 5.16134 7.26533 5.16165 7.24608 5.16243C6.9385 5.17219 6.67656 5.28688 6.49936 5.4737C6.32121 5.65975 6.22934 5.9003 6.19488 6.14796C6.1769 6.27846 6.26781 6.39887 6.39817 6.41688C6.52852 6.43503 6.64895 6.34411 6.66694 6.21376V6.2136C6.69145 6.03702 6.75322 5.89704 6.84322 5.80393C6.93416 5.71159 7.05488 5.64844 7.26408 5.63882L7.30381 5.63803C7.47666 5.63866 7.60733 5.67932 7.72123 5.74852C7.891 5.85157 8.02944 6.0336 8.13617 6.27178C8.24326 6.50858 8.31555 6.79473 8.36459 7.07684C8.42606 7.42971 8.49682 7.78819 8.55608 8.13175C8.395 8.04499 8.21438 7.99938 8.03096 7.99954C7.95838 7.99954 7.88576 8.00637 7.81344 8.02016ZM8.67438 9.11542C8.67467 9.11913 8.67592 9.12257 8.67653 9.1263C8.67778 9.16305 8.68026 9.20186 8.68026 9.23694C8.68057 9.40917 8.66444 9.55878 8.63213 9.67454C8.59987 9.79122 8.55424 9.87067 8.49932 9.92407C8.37176 10.0468 8.25041 10.0909 8.14022 10.0914C8.0344 10.0909 7.92733 10.0504 7.8218 9.95093C7.71721 9.85161 7.61883 9.69085 7.5583 9.46413C7.52231 9.3285 7.50678 9.20718 7.50678 9.10118C7.50709 8.90255 7.55953 8.75932 7.63154 8.66186C7.70416 8.56473 7.79602 8.50917 7.90217 8.48854C7.94531 8.4803 7.98844 8.4763 8.03096 8.4763C8.18895 8.47659 8.33541 8.53122 8.44963 8.63442C8.56326 8.73819 8.64955 8.89149 8.67438 9.11542Z" fill="black"/>
</g>
<defs>
<clipPath id="clip0_1_27">
<rect width="10" height="10" fill="white" transform="translate(2 3)"/>
</clipPath>
</defs>
</svg>
