<svg width="16" height="16" viewBox="0 0 16 16" fill="none" xmlns="http://www.w3.org/2000/svg">
<circle cx="8" cy="8" r="8" fill="white"/>
<path d="M4.36454 9.37321C4.0104 8.91313 3.83334 8.68309 3.83334 8C3.83334 7.31692 4.0104 7.08689 4.36454 6.62681C5.07165 5.70816 6.25755 4.66667 8 4.66667C9.74246 4.66667 10.9283 5.70816 11.6355 6.62681C11.9896 7.08689 12.1667 7.31692 12.1667 8C12.1667 8.68309 11.9896 8.91313 11.6355 9.37321C10.9283 10.2918 9.74246 11.3333 8 11.3333C6.25755 11.3333 5.07165 10.2918 4.36454 9.37321Z" stroke="black" stroke-width="0.6"/>
<path d="M9.25 8C9.25 8.69037 8.69037 9.25 8 9.25C7.30962 9.25 6.75 8.69037 6.75 8C6.75 7.30962 7.30962 6.75 8 6.75C8.69037 6.75 9.25 7.30962 9.25 8Z" stroke="black" stroke-width="0.6"/>
</svg>
