<svg width="16" height="16" viewBox="0 0 16 16" fill="none" xmlns="http://www.w3.org/2000/svg">
<circle cx="8" cy="8" r="8" fill="white"/>
<g clip-path="url(#clip0_1_24)">
<path d="M5.18002 11.9215L5.34885 11.892L5.34868 11.8906L5.18002 11.9215Z" fill="black"/>
<path d="M10.7679 10.8C10.6307 10.7188 10.4632 10.6706 10.2743 10.6604C10.2593 10.6595 10.2434 10.659 10.227 10.659C10.0786 10.6578 9.93381 10.7033 9.82213 10.7793C9.72369 10.8451 9.64959 10.9275 9.58889 11.0117C9.48303 11.1599 9.4107 11.3183 9.33182 11.4737C9.21486 11.7073 9.08959 11.9298 8.89764 12.0972C8.70746 12.2615 8.44953 12.3906 7.99945 12.4204C7.60902 12.3952 7.36273 12.2923 7.18066 12.1602C7.04217 12.0586 6.93773 11.9347 6.84722 11.7954C6.71031 11.5863 6.61576 11.3458 6.48344 11.1223C6.41605 11.011 6.33664 10.8997 6.21844 10.8084C6.10181 10.7165 5.94021 10.6572 5.77297 10.659C5.75779 10.659 5.74156 10.6595 5.72428 10.6604H5.72568C5.53654 10.6706 5.3693 10.7188 5.23205 10.8C5.02404 10.9214 4.90053 11.1098 4.83808 11.2829C4.77441 11.4575 4.76117 11.6226 4.76082 11.75C4.76082 11.888 4.77773 11.9825 4.77988 11.9947L5.34867 11.8906L5.34744 11.8827C5.34461 11.8628 5.33879 11.8127 5.33879 11.75C5.33756 11.6396 5.36049 11.4954 5.4164 11.4069C5.44428 11.3615 5.47639 11.3273 5.5251 11.2982C5.57431 11.2696 5.64453 11.2442 5.75779 11.2377L5.7592 11.2375L5.77297 11.2372C5.81779 11.2384 5.83172 11.2449 5.85711 11.2603C5.87863 11.2744 5.90793 11.3021 5.94199 11.3495C6.00232 11.4319 6.07043 11.5706 6.15176 11.7334C6.27488 11.9771 6.43385 12.2797 6.72125 12.5321C7.0083 12.786 7.42203 12.9698 7.98394 12.9991L8 13L8.01603 12.9991C8.50545 12.9728 8.88213 12.8321 9.16103 12.6265C9.37027 12.4732 9.52183 12.289 9.63791 12.1098C9.81099 11.8407 9.91473 11.5789 10.0121 11.4198C10.0597 11.3396 10.103 11.2896 10.1329 11.2673C10.1645 11.2454 10.1767 11.2391 10.227 11.2372L10.242 11.2377C10.3554 11.2442 10.4256 11.2696 10.4749 11.2982C10.5465 11.3413 10.5872 11.3986 10.6194 11.4824C10.6501 11.5648 10.6615 11.6678 10.661 11.75C10.6612 11.7945 10.6582 11.8328 10.6555 11.8584L10.652 11.8864L10.6511 11.8919V11.8922L10.8147 11.9206L11.2201 11.9946C11.2222 11.9826 11.2392 11.888 11.2392 11.75C11.2379 11.581 11.2171 11.3414 11.0782 11.1078C11.0088 10.9921 10.9056 10.8804 10.7679 10.8Z" fill="black"/>
<path d="M3.82385 10.3144C3.82385 10.1915 3.82985 10.0814 3.83919 9.99299C3.89776 9.44078 4.12235 9.00096 4.39387 8.58299C4.66415 8.16522 4.98385 7.78219 5.19151 7.33479C5.34217 7.00734 5.54295 6.56133 5.69891 5.88314C5.85557 5.20391 5.97042 4.29039 5.97042 3H5.39245C5.39245 4.2565 5.28042 5.12486 5.13557 5.75332C4.98985 6.38262 4.8143 6.77023 4.6661 7.09344C4.50766 7.44295 4.20387 7.8182 3.9094 8.26774C3.61653 8.71691 3.33567 9.25289 3.2644 9.93232C3.25256 10.0442 3.24586 10.1728 3.24586 10.3145C3.24604 10.6622 3.2859 11.0872 3.40378 11.5066C3.52233 11.9247 3.71817 12.3426 4.05655 12.653L4.4461 12.226C4.22151 12.0228 4.05903 11.7033 3.96022 11.3497C3.86053 10.9974 3.82366 10.6168 3.82385 10.3144Z" fill="black"/>
<path d="M12.7356 9.9323C12.6643 9.25287 12.3835 8.71689 12.0906 8.26771C11.7962 7.81818 11.4924 7.44293 11.3339 7.09342C11.1857 6.77021 11.0102 6.3826 10.8644 5.7533C10.7196 5.12486 10.6076 4.2565 10.6076 3H10.0296C10.0296 4.29039 10.1445 5.20391 10.3011 5.88316C10.4571 6.56135 10.6579 7.00734 10.8085 7.3348C11.0162 7.78221 11.3359 8.16523 11.6061 8.58301C11.8777 9.00096 12.1023 9.4408 12.1608 9.99301C12.17 10.0814 12.176 10.1915 12.176 10.3145C12.1764 10.6168 12.1395 10.9974 12.0398 11.3497C11.9408 11.7033 11.7785 12.0228 11.5539 12.226L11.9435 12.653C12.2818 12.3427 12.4777 11.9247 12.5962 11.5066C12.7141 11.0872 12.754 10.6622 12.7541 10.3145C12.7542 10.1728 12.7475 10.0441 12.7356 9.9323Z" fill="black"/>
</g>
<defs>
<clipPath id="clip0_1_24">
<rect width="10" height="10" fill="white" transform="translate(3 3)"/>
</clipPath>
</defs>
</svg>
