<svg width="16" height="16" viewBox="0 0 16 16" fill="none" xmlns="http://www.w3.org/2000/svg">
<circle cx="8" cy="8" r="8" fill="white"/>
<g clip-path="url(#clip0_1_25)">
<path d="M8 12.375C7.26181 12.375 6.55386 12.0818 6.03189 11.5598C5.50991 11.0378 5.21667 10.3299 5.21667 9.59167V7.20417C5.21667 6.99311 5.30051 6.79068 5.44976 6.64143C5.59901 6.49219 5.80143 6.40834 6.0125 6.40834H7.20417C7.30868 6.40834 7.41216 6.42893 7.50872 6.46892C7.60527 6.50891 7.69301 6.56753 7.76691 6.64143C7.84081 6.71533 7.89943 6.80307 7.93942 6.89962C7.97942 6.99618 8 7.09966 8 7.20417C8 6.99311 8.08385 6.79068 8.23309 6.64143C8.38234 6.49219 8.58477 6.40834 8.79583 6.40834H9.9875C10.1986 6.40834 10.401 6.49219 10.5502 6.64143C10.6995 6.79068 10.7833 6.99311 10.7833 7.20417V9.59167C10.7833 9.95719 10.7113 10.3191 10.5715 10.6568C10.4316 10.9945 10.2266 11.3013 9.96811 11.5598C9.70966 11.8182 9.40283 12.0233 9.06514 12.1631C8.72745 12.303 8.36551 12.375 8 12.375Z" stroke="black" stroke-width="0.6" stroke-miterlimit="10"/>
<path d="M8 10.7833V7.20416" stroke="black" stroke-width="0.6" stroke-miterlimit="10"/>
<path d="M5.21667 7.20417C4.79453 7.20417 4.38968 7.03647 4.09119 6.73798C3.79269 6.43948 3.625 6.03464 3.625 5.6125C3.6261 5.08572 3.83585 4.58083 4.20834 4.20834C4.58083 3.83585 5.08572 3.6261 5.6125 3.625H10.3875C10.9143 3.6261 11.4192 3.83585 11.7917 4.20834C12.1641 4.58083 12.3739 5.08572 12.375 5.6125C12.375 6.03464 12.2073 6.43948 11.9088 6.73798C11.6103 7.03647 11.2055 7.20417 10.7833 7.20417" stroke="black" stroke-width="0.6" stroke-miterlimit="10"/>
</g>
<defs>
<clipPath id="clip0_1_25">
<rect width="10" height="10" fill="white" transform="translate(3 3)"/>
</clipPath>
</defs>
</svg>
