<svg width="16" height="16" viewBox="0 0 16 16" fill="none" xmlns="http://www.w3.org/2000/svg">
<circle cx="8" cy="8" r="8" fill="white"/>
<path d="M6.75776 13.9166C5.84495 13.5092 5.09097 12.8744 4.5954 12.0245" stroke="black" stroke-width="0.7" stroke-linecap="round"/>
<path d="M10.0303 3.18405C10.9386 2.92561 11.8764 3.17165 12.5309 3.84017" stroke="black" stroke-width="0.7" stroke-linecap="round"/>
<path d="M7.82845 7.7712C7.91696 7.92129 8.1117 7.972 8.26344 7.88448C8.41518 7.79696 8.46645 7.60434 8.37799 7.45426L7.82845 7.7712ZM6.60774 8.86492C6.69623 9.015 6.89098 9.06571 7.04273 8.97817C7.19448 8.89068 7.24576 8.69807 7.15727 8.54795L6.60774 8.86492ZM10.2165 8.03291L10.3743 8.30605C10.448 8.2644 10.5018 8.1954 10.5237 8.11436C10.5457 8.03329 10.534 7.94693 10.4913 7.87445L10.2165 8.03291ZM9.25657 10.1934C9.34508 10.3435 9.53982 10.3942 9.69156 10.3067C9.84334 10.2192 9.89461 10.0266 9.8061 9.8765L9.25657 10.1934ZM5.26961 7.55835C5.53835 7.40644 5.8029 7.49982 5.89368 7.65379L6.4432 7.33684C6.13961 6.82193 5.45801 6.72718 4.95397 7.0121L5.26961 7.55835ZM4.95397 7.0121C4.44894 7.29756 4.18928 7.92712 4.49445 8.44472L5.04397 8.12779C4.95477 7.97649 5.00186 7.70969 5.26961 7.55835L4.95397 7.0121ZM6.40032 5.34897L6.75736 5.95453L7.30688 5.63759L6.94985 5.03203L6.40032 5.34897ZM6.75736 5.95453L7.82845 7.7712L8.37799 7.45426L7.30688 5.63759L6.75736 5.95453ZM7.15727 8.54795L6.4432 7.33684L5.89368 7.65379L6.60774 8.86492L7.15727 8.54795ZM6.4432 7.33684L5.55061 5.82295L5.00109 6.13989L5.89368 7.65379L6.4432 7.33684ZM5.77626 5.25353C6.04499 5.10163 6.30954 5.195 6.40032 5.34897L6.94985 5.03203C6.64625 4.51711 5.96465 4.42237 5.46061 4.70727L5.77626 5.25353ZM5.46061 4.70727C4.95559 4.99275 4.69592 5.6223 5.00109 6.13989L5.55061 5.82295C5.46142 5.67166 5.50851 5.40488 5.77626 5.25353L5.46061 4.70727ZM8.15657 5.1636L9.22769 6.98028L9.77722 6.66333L8.7061 4.84666L8.15657 5.1636ZM9.22769 6.98028L9.94177 8.19137L10.4913 7.87445L9.77722 6.66333L9.22769 6.98028ZM7.53252 5.06816C7.80127 4.91626 8.06582 5.00964 8.15657 5.1636L8.7061 4.84666C8.4025 4.33175 7.7209 4.237 7.21688 4.52191L7.53252 5.06816ZM7.21688 4.52191C6.71185 4.80738 6.45219 5.43694 6.75736 5.95453L7.30688 5.63759C7.21768 5.4863 7.26477 5.21951 7.53252 5.06816L7.21688 4.52191ZM10.6269 6.18935L11.698 8.00602L12.2475 7.68908L11.1764 5.87241L10.6269 6.18935ZM10.0028 6.09391C10.2716 5.94201 10.5361 6.03539 10.6269 6.18935L11.1764 5.87241C10.8729 5.3575 10.1913 5.26275 9.68719 5.54766L10.0028 6.09391ZM9.68719 5.54766C9.18218 5.83313 8.92252 6.46269 9.22769 6.98028L9.77722 6.66333C9.68799 6.51204 9.73511 6.24526 10.0028 6.09391L9.68719 5.54766ZM4.49445 8.44472L6.1011 11.1697L6.65062 10.8528L5.04397 8.12779L4.49445 8.44472ZM10.4446 11.5785C9.01675 12.3856 7.33295 12.0101 6.65062 10.8528L6.1011 11.1697C6.99624 12.688 9.09707 13.0649 10.7603 12.1248L10.4446 11.5785ZM11.698 8.00602C12.3787 9.16063 11.8715 10.7719 10.4446 11.5785L10.7603 12.1248C12.4245 11.1841 13.1443 9.21 12.2475 7.68908L11.698 8.00602ZM9.8061 9.8765C9.51972 9.39074 9.72018 8.67579 10.3743 8.30605L10.0587 7.75979C9.1673 8.26369 8.75424 9.34141 9.25657 10.1934L9.8061 9.8765Z" fill="black"/>
</svg>
